/* XPM */
static char * doorclosed_xpm[] = {
"32 32 8 1",
" 	c #755338",
".	c #503625",
"+	c #677598",
"@	c #21110D",
"#	c #342319",
"$	c #E9CE7C",
"%	c #D99945",
"&	c #000000",
"            .               .   ",
"            .               .   ",
".... ..    ......... ..    .....",
"                                ",
"                                ",
"                                ",
"     .               .          ",
"........+@@@@@@@@@@@@@@+ ..    .",
" .      @              @        ",
"        @              @        ",
"        @.############.@        ",
"        @ #..#....#..# @        ",
"...   ..@ #.......#..# @........",
"        @ #..........# @    .   ",
"        @ #..........# @        ",
"        @ #........$%# @        ",
"        @ #........%%# @    .   ",
"        @ #........### @    .   ",
".... .. @ #..#.......# @   .....",
"        @ #..#.......# @        ",
"        @ #..#....#..# @        ",
"        @&&&&&&&&&&&&&&@        ",
"     .  &            . &        ",
"........ ..    ......... ..    .",
" .               .              ",
"                                ",
"                                ",
"                                ",
"...   .............   ..........",
"            .               .   ",
"                                ",
"                                "};
