/* XPM */
static char * wall_xpm[] = {
"32 32 5 1",
" 	c #242A3D",
".	c #000000",
"+	c #677598",
"@	c #414B66",
"#	c #8F9AB0",
" ....++...+.... @...++........++",
".+++@..@@@.+++@..++@..++@@++++.@",
"+++++.@+++@++++@@+++.+++@++++++.",
"+++++@+++++++++@@+++@++++++++++.",
"@++++ +++++#+++  @++ ++@+++++++.",
"+++++@++##+@##@++++++@@++####++.",
"###++@+#++# @@#######+@+#++++#+.",
"++++  @++++   +++++++  @++++++ .",
"+@@@@ +++@@+ ++++++@@@ ++++@@@+.",
"@@@@@ +@@@@@ ++@+@@@@@ +++@@@@@.",
"@@@@@ @+@@@@ @@+@@+@@@ @+@@@@@@.",
"@@@@   @@@@   @@@@@@@   @@@@@@..",
".       +++@              ++++..",
".+++   ++@@+ @++++++++   ++@@++.",
"+++++ +@@+@@@++++++++++ +@@@@@+.",
"+@@@+ @@@@@@+++@@@@@@@+ @@@@@@@.",
".++++  @++++   ++++++  @++++++ .",
".+@@@@ +++@@+ +++++@@@ ++++@@@+.",
".@@@@@ +@@@@@ +++@@@@@ +++@@@@@.",
".@@@@@ @+@@@@ @@@@+@@@ @+@@@@@@.",
".@@@@   @@@@   @@@@@@   @@@@@@..",
"..       +++@             ++++..",
"..+++   ++@@+ @+++++++   ++@@++.",
".+++++ +@@+@@@+++++++++ +@@@@@+.",
".+@@@+ @@@@@@+++@@@@@@+ @@@@@@@.",
".@@@@@ @@@@@ +@@@@@@@@@ @@@@@@@.",
".@@@@         @@@@@@@@   @@@@@..",
"..+++++++  @++++@  ++++++  @+++.",
".+++@@@@++ +++@@+ +++@@@++ +++@.",
".+@@@@@+@@ +@@@@@ +@@@@+@@ +@@@.",
".@@@@@@@@@  @@@@  @@@@@@@@  @@@.",
"................................"};
