/* XPM */
static char * dooropen_xpm[] = {
"32 32 6 1",
" 	c #755338",
".	c #503625",
"+	c #677598",
"@	c #21110D",
"#	c #342319",
"$	c #000000",
"            .               .   ",
"            .               .   ",
".... ..    ......... ..    .....",
"                                ",
"                                ",
"                                ",
"     .               .          ",
"........ ..    ......... ..    .",
" .      +@@@@@@@@@@@@@@+        ",
"        @              @        ",
"        @              @        ",
"        @.############.@        ",
"...   ..@ #........    @........",
"        @ #..          @    .   ",
"        @ #.           @        ",
"        @ #.           @        ",
"        @ #..          @    .   ",
"        @ #..          @    .   ",
".... .. @ #......... . @   .....",
"        @ #.           @        ",
"        @ #.           @        ",
"        @ #.           @        ",
"     .  @$$$         .$@        ",
"........$..    ........$ ..    .",
" .               .              ",
"                                ",
"                                ",
"                                ",
"...   .............   ..........",
"            .               .   ",
"                                ",
"                                "};
