/* XPM */
static char * coin_xpm[] = {
"32 32 7 1",
" 	c #755338",
".	c #503625",
"+	c #000000",
"@	c #F9AB0F",
"#	c #FEFEFE",
"$	c #FECC0F",
"%	c #E98710",
"            .               .   ",
"            .               .   ",
".... ..    ......... ..    .....",
"                                ",
"                                ",
"                                ",
"     .               .          ",
"........ ..    ......... ..    .",
" .            ++++              ",
"            ++@@@@++            ",
"           +@@#$$$%%+           ",
"          +@##$$$$$$%+          ",
"...   ...+@#$$%%%%$$$%+.........",
"         +@#$%@@@@%$$%+     .   ",
"        +@#$%@@@@$$@$$%+        ",
"        +@$$%@@@$$$@$$%+        ",
"        +@$$%@@$$$#@$$%+    .   ",
"        +@$$%@$$$##@$$%+    .   ",
".... ..  +@$$%$$##@$$%+    .....",
"         +@$$$@@@@$$$%+         ",
"          +@$$$$$$$$%+          ",
"           +@@$$$$%%+           ",
"     .      ++@@@@++ .          ",
"........ ..   ++++...... ..    .",
" .               .              ",
"                                ",
"                                ",
"                                ",
"...   .............   ..........",
"            .               .   ",
"                                ",
"                                "};
